<svg width="200" height="32" viewBox="0 0 200 32" fill="none" xmlns="http://www.w3.org/2000/svg">
<path d="M27.0591 25.6992L23.0629 16.045L20.4289 9.74484L16.4327 0.135975C16.3418 -0.0453249 16.024 -0.0453249 15.9785 0.135975L11.9823 9.79017L9.34836 16.0903L5.35209 25.7445C5.26126 25.9258 5.53373 26.0618 5.71538 25.9711L10.3474 23.3423C14.2529 20.9401 15.3428 19.3537 15.5698 15.5918C13.7988 15.6824 12.7543 16.2716 12.7543 16.2716C12.7543 16.2716 12.8905 15.2291 13.0722 15.0025C13.4355 14.5493 14.707 13.0989 14.707 13.0989C14.707 13.0989 15.7515 9.69952 16.024 8.52107C16.0694 8.3851 16.251 8.3851 16.2964 8.52107C16.5689 9.65419 17.6588 13.0989 17.6588 13.0989C17.6588 13.0989 18.8395 14.5946 19.2028 15.0025C19.4299 15.2291 19.5207 16.2716 19.5207 16.2716C19.5207 16.2716 18.5216 15.7277 16.7506 15.5918C17.023 19.3084 18.1129 20.8948 21.973 23.3423L26.605 25.9711C26.8321 26.0618 27.1045 25.8805 27.0591 25.6992Z" fill="url(#paint0_linear_2839_20620)"/>
<path d="M10.2102 8.83823H0.264928C-0.00754485 8.83823 -0.0983693 9.1555 0.128692 9.29147L6.98594 14.0506C8.12124 14.6851 9.93773 10.4246 10.4373 9.1555C10.4827 9.01952 10.3919 8.83823 10.2102 8.83823Z" fill="url(#paint1_linear_2839_20620)"/>
<path d="M22.1991 8.83823H32.1444C32.4169 8.83823 32.5077 9.1555 32.2806 9.29147L25.4234 14.0959C24.2881 14.7305 22.4716 10.4699 21.9721 9.20083C21.8812 9.01953 22.0175 8.83823 22.1991 8.83823Z" fill="url(#paint2_linear_2839_20620)"/>
<path d="M36.6737 25.3174L37.4508 23.7246C38.5936 24.0432 40.1021 24.3617 41.7477 24.3617C44.8104 24.3617 46.1817 23.6791 46.1817 21.8587C46.1817 20.9485 45.8161 20.4024 45.1761 20.0384C44.4904 19.6288 43.4848 19.3557 41.9763 18.9462C40.3307 18.4911 39.005 17.9905 38.0908 17.1713C37.2223 16.3977 36.7194 15.3054 36.7194 13.7126C36.7194 9.48028 40.2392 8.52459 44.079 8.52459C45.6332 8.52459 47.6445 8.70663 49.2901 9.02519L48.4673 10.5725C47.1874 10.2994 46.2275 10.1174 44.9932 10.1174C42.4334 10.1174 41.0163 10.6635 41.0163 12.4384C41.0163 13.3485 41.3363 13.8492 41.9306 14.2132C42.5705 14.6228 43.5762 14.8958 44.9018 15.2144C46.7303 15.715 48.1016 16.1701 49.0159 16.9438C49.9758 17.7629 50.4329 18.8096 50.4329 20.4024C50.4329 24.7258 46.456 25.9545 42.662 25.9545C40.7878 25.9545 38.6393 25.7725 36.6737 25.3174Z" fill="#414361"/>
<path d="M57.2895 25.7726H52.764V14.3498H55.8267C56.6038 14.3498 57.2895 14.987 57.2895 15.8061V25.7726ZM57.1066 15.6241C57.7923 14.6684 59.0722 14.1223 60.6721 14.1223C62.6377 14.1223 63.8262 14.8504 64.329 15.8516C65.3804 14.6684 66.7975 14.1223 68.3517 14.1223C70.8201 14.1223 72.6028 15.3055 72.6028 18.2181V25.7726H69.5402C68.7631 25.7726 68.0774 25.1355 68.0774 24.3163V18.1271C68.0774 16.7163 67.8031 16.0337 66.3404 16.0337C65.7918 16.0337 65.3804 16.1702 64.9233 16.3522V25.7271H61.8606C61.0835 25.7271 60.3978 25.09 60.3978 24.2708V18.0816C60.3978 16.6708 60.215 15.9882 58.6151 15.9882C58.1123 15.9882 57.7009 16.0792 57.2437 16.2157" fill="#414361"/>
<path d="M170.696 25.7726H166.171V14.3498H169.234C170.011 14.3498 170.696 14.987 170.696 15.8061V25.7726ZM170.514 15.6241C171.199 14.6684 172.479 14.1223 174.079 14.1223C176.045 14.1223 177.233 14.8504 177.736 15.8516C178.787 14.6684 180.204 14.1223 181.759 14.1223C184.227 14.1223 186.01 15.3055 186.01 18.2181V25.7726H182.947C182.17 25.7726 181.484 25.1355 181.484 24.3163V18.1271C181.484 16.7163 181.21 16.0337 179.747 16.0337C179.199 16.0337 178.787 16.1702 178.33 16.3522V25.7271H175.268C174.491 25.7271 173.805 25.09 173.805 24.2708V18.0816C173.805 16.6708 173.622 15.9882 172.022 15.9882C171.519 15.9882 171.108 16.0792 170.651 16.2157" fill="#414361"/>
<path d="M82.4311 25.1808C81.6998 25.6814 80.1913 26 78.9113 26C76.1229 26 74.8887 23.9066 74.8887 21.8131C74.8887 19.3101 76.4886 17.8994 79.5056 17.8994L81.2426 18.8551C80.0541 18.8551 78.6828 19.8107 78.6828 21.7676C78.6828 23.4515 79.597 24.5437 80.6941 24.5437C81.2426 24.5437 81.654 24.4072 81.974 24.3617L82.4311 25.1808ZM81.974 17.6263C81.974 15.988 81.1055 15.6694 79.277 15.6694C78.2257 15.6694 76.9458 15.7604 76.2144 15.8515V14.5317C77.4029 14.3042 78.9571 14.1676 80.237 14.1676C84.4882 14.1676 86.2252 15.2599 86.2252 17.9904V25.7269H83.4368C82.6597 25.7269 81.974 25.0898 81.974 24.2706V17.6263Z" fill="#414361"/>
<path d="M93.2623 24.3616C93.2623 25.1352 92.6223 25.8179 91.7995 25.8179H88.7368V14.3496H91.7995C92.5766 14.3496 93.2623 14.9867 93.2623 15.8059V24.3616ZM92.8966 15.3053C93.8565 14.6682 94.4965 14.3041 95.7764 14.3041C96.1878 14.3041 96.7821 14.3951 97.2392 14.5316L96.2792 16.3975C96.2792 16.3975 95.7764 16.0789 95.0907 16.0789C94.5879 16.0789 93.8108 16.2155 93.2623 16.625" fill="#414361"/>
<path d="M116.074 17.6718C118.085 17.6718 118.954 16.7616 118.954 13.9401C118.954 10.982 118.085 10.1628 116.028 10.1628H113.56V17.6718V19.2646V25.8179H109.034V8.66103H118.085C121.056 8.66103 123.571 10.982 123.571 13.9401C123.571 16.2155 122.199 17.8083 120.096 18.6275L123.89 25.7724H120.051C119.319 25.7724 118.679 25.3628 118.359 24.7257L114.611 17.6263H116.074V17.6718Z" fill="#414361"/>
<path d="M125.033 20.0385C125.033 15.8971 127.73 14.1223 131.067 14.1223C134.816 14.1223 136.873 15.8971 136.873 19.8109C136.873 20.175 136.827 20.4936 136.781 20.9031H129.376C129.467 23.9522 130.29 24.4528 133.17 24.4528C134.221 24.4528 135.273 24.3618 136.324 24.2253L135.638 25.4995C135.136 25.6361 133.719 25.8636 132.302 25.8636C127.959 25.9091 125.033 24.7714 125.033 20.0385ZM129.376 19.5379H132.759C132.713 16.3977 132.484 15.5786 131.113 15.5786C129.787 15.5786 129.422 16.3522 129.376 19.5379Z" fill="#414361"/>
<path d="M188.161 20.0385C188.161 15.8971 190.858 14.1223 194.195 14.1223C197.943 14.1223 200 15.8971 200 19.8109C200 20.175 199.954 20.4936 199.909 20.9031H192.549C192.64 23.9522 193.463 24.4528 196.343 24.4528C197.394 24.4528 198.446 24.3618 199.497 24.2253L198.812 25.4995C198.309 25.6361 196.892 25.8636 195.475 25.8636C191.086 25.9091 188.161 24.7714 188.161 20.0385ZM192.549 19.5379H195.932C195.886 16.3977 195.657 15.5786 194.286 15.5786C192.915 15.5786 192.595 16.3522 192.549 19.5379Z" fill="#414361"/>
<path d="M138.655 25.5448L139.432 24.225C140.026 24.3616 140.758 24.4526 142.403 24.4526C144.643 24.4526 145.146 24.043 145.146 23.2238C145.146 22.7687 144.963 22.4957 144.597 22.3136C144.094 22.0406 143.409 21.9041 142.632 21.722C141.443 21.4035 140.255 21.0849 139.615 20.3113C139.112 19.7196 138.838 19.037 138.838 18.0813C138.838 14.9867 141.626 14.2131 144.323 14.2131C145.694 14.2131 147.066 14.3496 148.117 14.5771L147.294 15.8059C146.929 15.7604 146.06 15.6238 145.054 15.6238C143.272 15.6238 142.769 16.0334 142.769 16.716C142.769 17.2622 142.997 17.4897 143.409 17.7172C143.912 17.9448 144.597 18.1268 145.283 18.3089C146.334 18.5819 147.294 18.855 147.98 19.3101C148.757 19.9017 149.123 20.6753 149.123 21.9496C149.077 24.9532 146.289 25.8178 142.677 25.8178C141.26 25.9089 139.935 25.7268 138.655 25.5448Z" fill="#414361"/>
<path d="M159.04 14.3497H163.566V25.818H160.503C159.726 25.818 159.04 25.1808 159.04 24.3617V14.3497ZM159.223 24.6347C158.492 25.4539 157.074 26 155.52 26C153.006 26 151.178 24.9078 151.178 21.9042V14.3497H154.24C155.017 14.3497 155.703 14.9868 155.703 15.806V21.9952C155.703 23.3605 156.069 24.0886 157.577 24.0886C158.126 24.0886 158.537 23.9976 159.04 23.8611" fill="#414361"/>
<path d="M106.748 15.715V14.3497H104.279V11.1186H102.999C102.999 12.8935 101.536 14.3497 99.7537 14.3497H98.8395L98.2909 15.715H99.7994V22.4503C99.7994 25.2264 101.491 25.8635 103.822 25.8635C104.873 25.8635 105.788 25.7725 106.748 25.636V24.3617C106.473 24.4072 106.108 24.4528 105.742 24.4528C104.691 24.4528 104.279 24.1797 104.279 23.042V15.715H106.748Z" fill="#414361"/>
<defs>
<linearGradient id="paint0_linear_2839_20620" x1="5.33594" y1="-0.00863459" x2="25.829" y2="26.9739" gradientUnits="userSpaceOnUse">
<stop offset="0.1967" stop-color="#3328AE"/>
<stop offset="1" stop-color="#2CDECD"/>
</linearGradient>
<linearGradient id="paint1_linear_2839_20620" x1="0.000909229" y1="8.83647" x2="1.98216" y2="18.1698" gradientUnits="userSpaceOnUse">
<stop offset="0.1967" stop-color="#3328AE"/>
<stop offset="1" stop-color="#2CDECD"/>
</linearGradient>
<linearGradient id="paint2_linear_2839_20620" x1="21.9441" y1="8.83646" x2="24.4896" y2="16.7234" gradientUnits="userSpaceOnUse">
<stop offset="0.1967" stop-color="#3328AE"/>
<stop offset="1" stop-color="#2CDECD"/>
</linearGradient>
</defs>
</svg>
